<?xml version="1.0" encoding="UTF-8" standalone="no"?>
<!DOCTYPE svg PUBLIC "-//W3C//DTD SVG 1.1//EN"
 "http://www.w3.org/Graphics/SVG/1.1/DTD/svg11.dtd">
<!-- Generated by graphviz version 2.47.0 (20210316.0004)
 -->
<!-- Title: dependencies Pages: 1 -->
<svg width="952pt" height="211pt"
 viewBox="0.00 0.00 952.00 211.00" xmlns="http://www.w3.org/2000/svg" xmlns:xlink="http://www.w3.org/1999/xlink">
<g id="graph0" class="graph" transform="scale(1 1) rotate(0) translate(4 207)">
<title>dependencies</title>
<polygon fill="white" stroke="transparent" points="-4,4 -4,-207 948,-207 948,4 -4,4"/>
<text text-anchor="start" x="451.01" y="-42.4" font-family="Times-12" font-weight="bold" font-size="14.00">Legend</text>
<polygon fill="#ffffb3" stroke="transparent" points="238,-10 238,-30 258,-30 258,-10 238,-10"/>
<text text-anchor="start" x="261.63" y="-15.4" font-family="Times-12" font-size="14.00"> &#160;Declarations</text>
<polygon fill="#8dd3c7" stroke="transparent" points="351,-10 351,-30 371,-30 371,-10 351,-10"/>
<text text-anchor="start" x="374.73" y="-15.4" font-family="Times-12" font-size="14.00"> &#160;Module</text>
<polygon fill="#80b1d3" stroke="transparent" points="437,-10 437,-30 457,-30 457,-10 437,-10"/>
<text text-anchor="start" x="460.78" y="-15.4" font-family="Times-12" font-size="14.00"> &#160;Bootstrap</text>
<polygon fill="#fdb462" stroke="transparent" points="534,-10 534,-30 554,-30 554,-10 534,-10"/>
<text text-anchor="start" x="557.67" y="-15.4" font-family="Times-12" font-size="14.00"> &#160;Providers</text>
<polygon fill="#fb8072" stroke="transparent" points="630,-10 630,-30 650,-30 650,-10 630,-10"/>
<text text-anchor="start" x="653.73" y="-15.4" font-family="Times-12" font-size="14.00"> &#160;Exports</text>
<g id="clust1" class="cluster">
<title>cluster_CustomerModule</title>
<polygon fill="none" stroke="black" stroke-dasharray="1,5" points="8,-70 8,-195 936,-195 936,-70 8,-70"/>
</g>
<g id="clust6" class="cluster">
<title>cluster_CustomerModule_providers</title>
<polygon fill="none" stroke="black" points="150,-78 150,-130 928,-130 928,-78 150,-78"/>
</g>
<g id="clust3" class="cluster">
<title>cluster_CustomerModule_imports</title>
<polygon fill="none" stroke="black" points="16,-78 16,-130 142,-130 142,-78 16,-78"/>
</g>
<!-- DatabaseModule -->
<g id="node1" class="node">
<title>DatabaseModule</title>
<polygon fill="#8dd3c7" stroke="black" points="134.35,-122 131.35,-126 110.35,-126 107.35,-122 23.65,-122 23.65,-86 134.35,-86 134.35,-122"/>
<text text-anchor="middle" x="79" y="-99.8" font-family="Times,serif" font-size="14.00">DatabaseModule</text>
</g>
<!-- CustomerModule -->
<g id="node2" class="node">
<title>CustomerModule</title>
<polygon fill="#8dd3c7" stroke="black" points="401.99,-187 398.99,-191 377.99,-191 374.99,-187 288.01,-187 288.01,-151 401.99,-151 401.99,-187"/>
<text text-anchor="middle" x="345" y="-164.8" font-family="Times,serif" font-size="14.00">CustomerModule</text>
</g>
<!-- DatabaseModule&#45;&gt;CustomerModule -->
<g id="edge1" class="edge">
<title>DatabaseModule&#45;&gt;CustomerModule</title>
<path fill="none" stroke="black" d="M60.52,-122.28C60.52,-143.32 60.52,-175 60.52,-175 60.52,-175 277.77,-175 277.77,-175"/>
<polygon fill="black" stroke="black" points="277.77,-178.5 287.77,-175 277.77,-171.5 277.77,-178.5"/>
</g>
<!-- DatabaseModule&#45;&gt;CustomerModule -->
<g id="edge2" class="edge">
<title>DatabaseModule&#45;&gt;CustomerModule</title>
<path fill="none" stroke="black" d="M97.47,-122.02C97.47,-139.37 97.47,-163 97.47,-163 97.47,-163 277.9,-163 277.9,-163"/>
<polygon fill="black" stroke="black" points="277.9,-166.5 287.9,-163 277.9,-159.5 277.9,-166.5"/>
</g>
<!-- CustomerRepository -->
<g id="node3" class="node">
<title>CustomerRepository</title>
<ellipse fill="#fdb462" stroke="black" cx="829" cy="-104" rx="90.93" ry="18"/>
<text text-anchor="middle" x="829" y="-99.8" font-family="Times,serif" font-size="14.00">CustomerRepository</text>
</g>
<!-- CustomerRepository&#45;&gt;CustomerModule -->
<g id="edge3" class="edge">
<title>CustomerRepository&#45;&gt;CustomerModule</title>
<path fill="none" stroke="black" d="M829,-122.28C829,-143.32 829,-175 829,-175 829,-175 412.42,-175 412.42,-175"/>
<polygon fill="black" stroke="black" points="412.42,-171.5 402.42,-175 412.42,-178.5 412.42,-171.5"/>
</g>
<!-- CustomerService -->
<g id="node4" class="node">
<title>CustomerService</title>
<ellipse fill="#fdb462" stroke="black" cx="642" cy="-104" rx="77.58" ry="18"/>
<text text-anchor="middle" x="642" y="-99.8" font-family="Times,serif" font-size="14.00">CustomerService</text>
</g>
<!-- CustomerService&#45;&gt;CustomerModule -->
<g id="edge4" class="edge">
<title>CustomerService&#45;&gt;CustomerModule</title>
<path fill="none" stroke="black" d="M642,-122.02C642,-139.37 642,-163 642,-163 642,-163 412.26,-163 412.26,-163"/>
<polygon fill="black" stroke="black" points="412.26,-159.5 402.26,-163 412.26,-166.5 412.26,-159.5"/>
</g>
<!-- TransactionRepository -->
<g id="node5" class="node">
<title>TransactionRepository</title>
<ellipse fill="#fdb462" stroke="black" cx="447" cy="-104" rx="99" ry="18"/>
<text text-anchor="middle" x="447" y="-99.8" font-family="Times,serif" font-size="14.00">TransactionRepository</text>
</g>
<!-- TransactionRepository&#45;&gt;CustomerModule -->
<g id="edge5" class="edge">
<title>TransactionRepository&#45;&gt;CustomerModule</title>
<path fill="none" stroke="black" d="M375,-116.53C375,-116.53 375,-140.85 375,-140.85"/>
<polygon fill="black" stroke="black" points="371.5,-140.85 375,-150.85 378.5,-140.85 371.5,-140.85"/>
</g>
<!-- TransactionService -->
<g id="node6" class="node">
<title>TransactionService</title>
<ellipse fill="#fdb462" stroke="black" cx="244" cy="-104" rx="85.65" ry="18"/>
<text text-anchor="middle" x="244" y="-99.8" font-family="Times,serif" font-size="14.00">TransactionService</text>
</g>
<!-- TransactionService&#45;&gt;CustomerModule -->
<g id="edge6" class="edge">
<title>TransactionService&#45;&gt;CustomerModule</title>
<path fill="none" stroke="black" d="M308.79,-115.92C308.79,-115.92 308.79,-140.77 308.79,-140.77"/>
<polygon fill="black" stroke="black" points="305.29,-140.77 308.79,-150.77 312.29,-140.77 305.29,-140.77"/>
</g>
</g>
</svg>
